<svg width="450" height="306" viewBox="0 0 450 306" fill="none" xmlns="http://www.w3.org/2000/svg">
<path d="M61.6861 302.475C30.0733 268.053 -13.1322 232.511 3.8102 178.822C14.9519 143.508 42.2839 133.665 64.9851 111.889C76.193 101.143 69.1441 85.5007 68.9352 69.9764C68.4599 30.2176 112.828 -0.634257 153.617 0.00990517C197.799 0.706297 216.925 45.1291 253.987 47.5108C268.541 47.7336 281.573 39.1924 294.449 32.4078C332.602 12.303 393.141 25.1235 396.2 73.7421C396.99 99.9995 367.108 142.241 397.048 156.05C420.909 167.057 445.015 171.11 449.315 210.475C454.943 261.999 425.184 290.271 386.415 303.537L61.6861 302.475Z" fill="#BEEECB"/>
<path d="M82.3574 106.537H126.346C128.961 106.537 131.469 107.575 133.317 109.424C135.166 111.273 136.205 113.781 136.205 116.396V136.903C136.205 138.198 135.95 139.48 135.455 140.676C134.96 141.872 134.233 142.959 133.318 143.875C132.402 144.79 131.316 145.516 130.119 146.012C128.923 146.507 127.641 146.762 126.346 146.762H126.019L129.55 158.601C129.582 158.713 129.578 158.832 129.538 158.943C129.499 159.053 129.427 159.148 129.331 159.214C129.235 159.281 129.12 159.316 129.004 159.315C128.887 159.313 128.773 159.275 128.679 159.206L112.381 146.771H82.3574C81.0627 146.771 79.7806 146.516 78.5844 146.021C77.3882 145.525 76.3013 144.799 75.3858 143.883C74.4703 142.968 73.7441 141.881 73.2488 140.685C72.7534 139.488 72.4986 138.206 72.4988 136.911V116.396C72.4988 113.781 73.5375 111.273 75.3863 109.424C77.2352 107.575 79.7428 106.537 82.3574 106.537Z" fill="white"/>
<path d="M126.326 123.757H84.0933C83.4531 123.757 82.8193 123.631 82.2279 123.386C81.6365 123.141 81.0991 122.782 80.6465 122.329C80.1938 121.877 79.8348 121.339 79.5898 120.748C79.3448 120.157 79.2187 119.523 79.2188 118.882C79.2188 117.59 79.7323 116.35 80.6465 115.436C81.5606 114.521 82.8005 114.008 84.0933 114.008H126.326C127.618 114.008 128.858 114.521 129.772 115.436C130.686 116.35 131.2 117.59 131.2 118.882C131.2 119.523 131.074 120.157 130.829 120.748C130.584 121.339 130.225 121.877 129.772 122.329C129.32 122.782 128.782 123.141 128.191 123.386C127.6 123.631 126.966 123.757 126.326 123.757Z" fill="#91E3AA"/>
<path d="M126.326 138.662H84.0933C82.8005 138.662 81.5606 138.148 80.6465 137.234C79.7323 136.32 79.2188 135.08 79.2188 133.787C79.2188 132.494 79.7323 131.254 80.6465 130.34C81.5606 129.426 82.8005 128.912 84.0933 128.912H126.326C127.618 128.912 128.858 129.426 129.772 130.34C130.686 131.254 131.2 132.494 131.2 133.787C131.2 135.08 130.686 136.32 129.772 137.234C128.858 138.148 127.618 138.662 126.326 138.662Z" fill="#91E3AA"/>
<path d="M351.562 51.1818H303.59C302.178 51.1816 300.78 51.4595 299.475 51.9998C298.17 52.54 296.985 53.332 295.986 54.3304C294.988 55.3289 294.195 56.5143 293.655 57.819C293.115 59.1236 292.836 60.5219 292.836 61.9341V84.2987C292.837 87.1505 293.97 89.8854 295.987 91.9018C298.003 93.9182 300.738 95.051 303.59 95.051H303.938L300.087 107.95C300.051 108.074 300.055 108.206 300.098 108.327C300.141 108.449 300.221 108.554 300.327 108.627C300.433 108.7 300.559 108.738 300.688 108.735C300.817 108.733 300.942 108.689 301.045 108.611L318.819 95.051H351.548C354.399 95.0505 357.134 93.9175 359.15 91.9012C361.166 89.8849 362.299 87.1502 362.3 84.2987V61.9341C362.3 59.0848 361.169 56.352 359.156 54.336C357.142 52.3199 354.411 51.1855 351.562 51.1818Z" fill="white"/>
<path d="M351.156 60.3245H302.855C300.459 60.3245 298.517 62.267 298.517 64.6631V65.7459C298.517 68.142 300.459 70.0845 302.855 70.0845H351.156C353.552 70.0845 355.495 68.142 355.495 65.7459V64.6631C355.495 62.267 353.552 60.3245 351.156 60.3245Z" fill="#91E3AA"/>
<path d="M327.579 75.081H304.96C302.265 75.081 300.08 77.2659 300.08 79.961C300.08 82.6561 302.265 84.841 304.96 84.841H327.579C330.274 84.841 332.459 82.6561 332.459 79.961C332.459 77.2659 330.274 75.081 327.579 75.081Z" fill="#91E3AA"/>
<path d="M31.4243 216.887C33.2418 215.513 35.4237 214.826 37.9701 214.826C43.4661 214.826 46.3751 217.817 46.3751 222.019C46.3751 224.443 45.2035 226.908 42.8202 229.373C39.7893 232.566 37.6062 234.142 36.2327 234.142C35.9292 234.146 35.628 234.089 35.3469 233.974C35.0657 233.86 34.8103 233.69 34.5957 233.476C34.3811 233.261 34.2116 233.006 34.0972 232.724C33.9827 232.443 33.9257 232.142 33.9295 231.839C33.9295 230.707 34.974 229.575 36.7985 227.92C36.8941 227.812 37.0029 227.717 37.1223 227.636C39.1835 225.736 39.8293 224.687 39.8293 223.393C39.8293 221.776 38.7378 220.888 37.1623 220.888C36.2804 220.917 35.4081 221.08 34.5753 221.372C33.5656 221.696 32.8385 221.858 32.394 221.858C31.7306 221.833 31.1038 221.547 30.6497 221.062C30.1957 220.578 29.951 219.934 29.9689 219.27C29.9689 218.423 30.4546 217.615 31.4243 216.887ZM36.9656 243.841C34.5005 243.841 32.8431 241.981 32.8431 239.72C32.8431 237.779 34.5005 235.921 36.9656 235.921C39.1069 235.921 40.7642 237.779 40.7642 239.72C40.759 241.941 39.1835 243.841 36.9656 243.841Z" fill="white"/>
<path d="M361.558 126.204C362.752 125.3 364.188 124.848 365.863 124.848C369.478 124.848 371.391 126.815 371.391 129.578C371.391 131.173 370.62 132.794 369.051 134.417C367.059 136.516 365.623 137.55 364.72 137.55C364.52 137.553 364.322 137.515 364.137 137.44C363.953 137.364 363.785 137.253 363.644 137.112C363.502 136.971 363.391 136.803 363.316 136.618C363.24 136.433 363.203 136.235 363.205 136.036C363.205 135.291 363.901 134.547 365.092 133.457C365.155 133.387 365.227 133.324 365.305 133.271C366.661 132.023 367.086 131.332 367.086 130.485C367.086 129.423 366.368 128.838 365.331 128.838C364.751 128.858 364.177 128.965 363.63 129.157C363.168 129.328 362.686 129.435 362.195 129.476C361.759 129.46 361.347 129.272 361.048 128.953C360.749 128.635 360.589 128.211 360.601 127.775C360.597 127.214 360.919 126.681 361.558 126.204ZM365.198 143.931C364.84 143.941 364.483 143.877 364.15 143.744C363.816 143.611 363.513 143.412 363.26 143.158C363.006 142.904 362.807 142.601 362.674 142.268C362.541 141.934 362.478 141.577 362.488 141.219C362.488 139.944 363.578 138.722 365.198 138.722C365.857 138.734 366.485 139.001 366.95 139.467C367.416 139.932 367.684 140.56 367.697 141.219C367.697 142.681 366.661 143.931 365.198 143.931Z" fill="white"/>
<path d="M441.045 224.422H390.591C390.379 224.422 390.169 224.38 389.973 224.299C389.777 224.218 389.599 224.099 389.449 223.949C389.299 223.799 389.179 223.621 389.098 223.425C389.017 223.229 388.975 223.018 388.975 222.806V179.371C388.975 178.942 389.146 178.531 389.449 178.228C389.751 177.925 390.162 177.755 390.591 177.755C391.019 177.755 391.43 177.925 391.733 178.228C392.036 178.531 392.206 178.942 392.206 179.371V221.187H441.045C441.474 221.187 441.885 221.357 442.188 221.66C442.491 221.963 442.661 222.374 442.661 222.803C442.661 223.231 442.491 223.642 442.188 223.945C441.885 224.248 441.474 224.418 441.045 224.418V224.422Z" fill="white"/>
<path d="M394.41 213.806C394.093 213.806 393.783 213.712 393.519 213.537C393.254 213.362 393.047 213.113 392.923 212.821C392.8 212.529 392.764 212.207 392.822 211.895C392.88 211.583 393.029 211.295 393.249 211.067L409.556 194.199C409.816 193.93 410.162 193.759 410.534 193.716C410.907 193.674 411.282 193.762 411.596 193.966L419.309 198.968L427.44 189.519C427.579 189.359 427.747 189.227 427.936 189.131C428.126 189.036 428.332 188.978 428.544 188.962C428.755 188.947 428.967 188.972 429.169 189.039C429.37 189.105 429.557 189.21 429.717 189.349C429.878 189.487 430.01 189.656 430.106 189.845C430.201 190.034 430.258 190.24 430.274 190.452C430.29 190.663 430.264 190.876 430.198 191.077C430.132 191.279 430.026 191.465 429.888 191.626L420.835 202.145C420.58 202.441 420.227 202.634 419.84 202.689C419.454 202.745 419.06 202.658 418.732 202.446L410.952 197.397L395.572 213.32C395.42 213.475 395.24 213.598 395.04 213.681C394.841 213.765 394.627 213.807 394.41 213.806Z" fill="white"/>
<path d="M429.923 196.444L427.623 191.782L422.67 190.201L433.695 184.726L429.923 196.444Z" fill="white"/>
<path d="M102.075 66.9175C100.141 66.9179 98.2512 66.3448 96.6435 65.2709C95.0357 64.1969 93.7826 62.6703 93.0424 60.8841C92.3023 59.0979 92.1085 57.1323 92.4855 55.2359C92.8624 53.3395 93.7933 51.5975 95.1603 50.2302C96.5273 48.8628 98.2691 47.9316 100.165 47.5543C102.062 47.177 104.027 47.3705 105.813 48.1103C107.6 48.8501 109.126 50.1031 110.201 51.7107C111.275 53.3183 111.848 55.2084 111.848 57.1419C111.845 59.7334 110.815 62.218 108.983 64.0507C107.15 65.8833 104.666 66.9143 102.075 66.9175ZM102.075 50.0614C100.674 50.0614 99.3047 50.4768 98.14 51.2551C96.9753 52.0334 96.0676 53.1396 95.5317 54.4338C94.9957 55.728 94.8556 57.1521 95.129 58.526C95.4024 59.8999 96.077 61.1618 97.0676 62.1522C98.0582 63.1426 99.3203 63.817 100.694 64.0901C102.068 64.3632 103.492 64.2227 104.786 63.6864C106.08 63.1501 107.186 62.242 107.964 61.0771C108.742 59.9122 109.157 58.5428 109.157 57.1419C109.154 55.2645 108.407 53.4646 107.08 52.1371C105.752 50.8097 103.952 50.0632 102.075 50.0614Z" fill="white"/>
<path d="M400.256 144.711C398.841 144.711 397.457 144.292 396.279 143.505C395.102 142.718 394.185 141.6 393.643 140.292C393.101 138.984 392.959 137.545 393.235 136.156C393.512 134.767 394.193 133.492 395.195 132.49C396.196 131.489 397.471 130.807 398.86 130.531C400.248 130.255 401.688 130.397 402.996 130.939C404.304 131.48 405.422 132.398 406.209 133.575C406.995 134.753 407.415 136.137 407.415 137.553C407.413 139.451 406.658 141.27 405.316 142.613C403.974 143.955 402.154 144.71 400.256 144.711ZM400.256 132.364C399.23 132.364 398.227 132.668 397.374 133.238C396.52 133.808 395.855 134.618 395.462 135.566C395.069 136.514 394.966 137.557 395.166 138.564C395.366 139.57 395.86 140.495 396.586 141.22C397.311 141.946 398.236 142.44 399.242 142.641C400.248 142.841 401.292 142.739 402.24 142.346C403.188 141.953 403.998 141.288 404.568 140.435C405.138 139.582 405.443 138.579 405.443 137.553C405.441 136.177 404.894 134.859 403.922 133.887C402.949 132.914 401.631 132.367 400.256 132.364Z" fill="#91E3AA"/>
<path d="M24.4311 183.958C23.1595 183.958 21.9165 183.581 20.8592 182.875C19.802 182.168 18.9779 181.164 18.4913 179.989C18.0047 178.815 17.8774 177.522 18.1255 176.275C18.3736 175.028 18.9859 173.882 19.885 172.983C20.7841 172.084 21.9297 171.471 23.1768 171.223C24.4239 170.975 25.7166 171.102 26.8914 171.589C28.0661 172.076 29.0702 172.9 29.7767 173.957C30.4831 175.014 30.8602 176.257 30.8602 177.529C30.857 179.233 30.1786 180.867 28.9736 182.072C27.7686 183.277 26.1352 183.955 24.4311 183.958ZM24.4311 172.872C23.5096 172.872 22.6088 173.145 21.8427 173.657C21.0765 174.169 20.4794 174.897 20.1269 175.748C19.7743 176.6 19.6822 177.537 19.8621 178.44C20.042 179.344 20.4858 180.174 21.1375 180.826C21.7892 181.477 22.6195 181.921 23.5233 182.1C24.4271 182.28 25.3638 182.187 26.2151 181.834C27.0663 181.482 27.7937 180.884 28.3054 180.118C28.8171 179.351 29.09 178.451 29.0897 177.529C29.0883 176.294 28.597 175.11 27.7236 174.237C26.8502 173.364 25.666 172.873 24.4311 172.872Z" fill="white"/>
<path d="M368.971 38.9719C369.281 37.0652 367.986 35.2686 366.08 34.9591C364.173 34.6496 362.376 35.9444 362.067 37.8511C361.757 39.7578 363.052 41.5544 364.959 41.8639C366.865 42.1734 368.662 40.8787 368.971 38.9719Z" fill="white"/>
<path d="M62.4713 103.158C62.4713 104.518 62.068 105.847 61.3125 106.978C60.557 108.109 59.4831 108.991 58.2267 109.511C56.9703 110.032 55.5878 110.168 54.2539 109.903C52.92 109.638 51.6947 108.983 50.733 108.021C49.7712 107.06 49.1161 105.834 48.8506 104.501C48.5851 103.167 48.721 101.784 49.2412 100.527C49.7614 99.2709 50.6425 98.1967 51.7731 97.4409C52.9037 96.685 54.2331 96.2814 55.593 96.2811C56.4962 96.2809 57.3906 96.4586 58.2251 96.8041C59.0596 97.1495 59.8179 97.6561 60.4566 98.2947C61.0953 98.9333 61.602 99.6914 61.9477 100.526C62.2934 101.36 62.4713 102.255 62.4713 103.158Z" fill="#91E3AA"/>
<path d="M389.896 24.8466C389.897 25.8694 389.594 26.8693 389.026 27.7198C388.458 28.5704 387.65 29.2334 386.706 29.625C385.761 30.0166 384.721 30.1193 383.718 29.92C382.715 29.7206 381.794 29.2283 381.07 28.5052C380.347 27.7822 379.855 26.8608 379.655 25.8578C379.455 24.8547 379.558 23.815 379.949 22.87C380.34 21.9251 381.003 21.1175 381.853 20.5492C382.703 19.981 383.703 19.6777 384.726 19.6777C386.097 19.6777 387.412 20.2222 388.381 21.1915C389.351 22.1608 389.896 23.4756 389.896 24.8466Z" fill="#91E3AA"/>
<path d="M415.193 148.98C415.194 149.853 414.935 150.706 414.45 151.432C413.966 152.158 413.277 152.724 412.47 153.058C411.664 153.393 410.776 153.48 409.92 153.31C409.064 153.14 408.277 152.72 407.66 152.103C407.043 151.486 406.622 150.699 406.452 149.843C406.281 148.987 406.369 148.099 406.703 147.293C407.037 146.486 407.602 145.797 408.328 145.312C409.054 144.827 409.907 144.568 410.78 144.568C411.95 144.568 413.072 145.033 413.9 145.86C414.728 146.687 415.193 147.809 415.193 148.98Z" fill="#91E3AA"/>
<path d="M376.998 51.5833C376.998 52.6714 376.675 53.7351 376.071 54.6398C375.466 55.5445 374.607 56.2497 373.602 56.6661C372.597 57.0825 371.491 57.1914 370.424 56.9791C369.356 56.7668 368.376 56.2429 367.607 55.4735C366.838 54.7041 366.314 53.7238 366.101 52.6566C365.889 51.5894 365.998 50.4833 366.414 49.478C366.831 48.4727 367.536 47.6135 368.441 47.009C369.345 46.4045 370.409 46.0818 371.497 46.0818C372.956 46.0818 374.355 46.6615 375.387 47.6932C376.418 48.7249 376.998 50.1243 376.998 51.5833Z" fill="white"/>
<path d="M123.987 41.5882C123.989 42.6926 123.663 43.7726 123.051 44.6915C122.438 45.6104 121.567 46.327 120.547 46.7504C119.527 47.1738 118.405 47.285 117.322 47.07C116.238 46.855 115.243 46.3233 114.463 45.5425C113.682 44.7616 113.15 43.7666 112.935 42.6834C112.72 41.6002 112.831 40.4775 113.255 39.4576C113.678 38.4377 114.395 37.5663 115.314 36.9538C116.232 36.3414 117.312 36.0154 118.417 36.0171C119.893 36.0194 121.309 36.6071 122.353 37.6514C123.398 38.6957 123.985 40.1114 123.987 41.5882Z" fill="white"/>
<path d="M387.875 305.489H57.5811C57.325 305.489 57.0713 305.438 56.8346 305.34C56.5979 305.242 56.3829 305.098 56.2018 304.917C56.0207 304.736 55.8772 304.521 55.7793 304.284C55.6814 304.047 55.6311 303.793 55.6313 303.537C55.6311 303.281 55.6814 303.027 55.7793 302.79C55.8772 302.554 56.0207 302.338 56.2018 302.157C56.3829 301.976 56.5979 301.832 56.8346 301.734C57.0713 301.636 57.325 301.585 57.5811 301.585H387.875C388.393 301.585 388.889 301.791 389.255 302.157C389.621 302.523 389.827 303.019 389.827 303.537C389.827 304.055 389.621 304.551 389.255 304.917C388.889 305.283 388.393 305.489 387.875 305.489Z" fill="#006F16"/>
<path d="M166.84 134.619H166.845L171.916 134.638L173.063 146.612L167.146 149.737L160.833 146.647L161.854 134.638L166.84 134.619Z" fill="#F37A50"/>
<path d="M152.909 129.333C156.03 137.131 163.528 141.466 169.648 139.015C175.767 136.564 178.206 128.256 175.086 120.46C171.966 112.663 164.467 108.327 158.347 110.778C152.228 113.229 149.791 121.537 152.909 129.333Z" fill="#F37A50"/>
<path d="M172.424 123.017C172.554 123.203 172.736 123.347 172.947 123.43C173.158 123.513 173.389 123.532 173.611 123.483C173.832 123.435 174.035 123.322 174.192 123.159C174.35 122.995 174.455 122.789 174.496 122.565C174.536 122.342 174.509 122.112 174.418 121.904C174.327 121.696 174.177 121.519 173.986 121.397C173.795 121.274 173.572 121.211 173.345 121.215C173.118 121.219 172.898 121.291 172.712 121.42C172.462 121.594 172.291 121.86 172.237 122.159C172.184 122.458 172.251 122.767 172.424 123.017Z" fill="black"/>
<path d="M163.833 126.525C163.973 126.727 164.17 126.882 164.399 126.971C164.627 127.061 164.877 127.081 165.117 127.028C165.357 126.976 165.576 126.853 165.746 126.676C165.916 126.5 166.03 126.276 166.073 126.035C166.117 125.793 166.087 125.544 165.989 125.319C165.891 125.094 165.728 124.903 165.522 124.771C165.315 124.638 165.074 124.57 164.828 124.575C164.583 124.579 164.344 124.656 164.143 124.796C163.873 124.985 163.688 125.273 163.63 125.597C163.572 125.921 163.645 126.255 163.833 126.525Z" fill="black"/>
<path d="M170.683 124.848C172.233 126.067 174.165 127.547 174.165 127.547C174.165 127.547 174.186 129.415 172.001 130.226C172.792 129.509 173.484 128.555 172.663 127.453C171.841 126.351 170.683 124.848 170.683 124.848Z" fill="#DE623C"/>
<path d="M161.572 125.778C161.486 125.778 161.402 125.758 161.325 125.721C161.248 125.684 161.18 125.63 161.126 125.563C161.073 125.496 161.035 125.419 161.016 125.335C160.996 125.252 160.996 125.165 161.014 125.082C161.215 124.241 162.059 122.644 163.8 122.644C163.952 122.644 164.097 122.705 164.205 122.812C164.312 122.92 164.373 123.065 164.373 123.217C164.373 123.369 164.312 123.515 164.205 123.622C164.097 123.73 163.952 123.79 163.8 123.79C162.506 123.79 162.125 125.333 162.122 125.348C162.09 125.47 162.019 125.579 161.919 125.656C161.82 125.734 161.698 125.777 161.572 125.778Z" fill="#201D40"/>
<path d="M171.223 120.591C171.138 120.592 171.055 120.569 170.983 120.525C170.928 120.494 170.881 120.452 170.843 120.402C170.804 120.352 170.776 120.296 170.76 120.235C170.744 120.174 170.74 120.111 170.748 120.049C170.757 119.987 170.777 119.927 170.809 119.872C170.83 119.838 171.331 119.002 172.278 118.828C172.926 118.708 173.594 118.92 174.266 119.458C174.317 119.497 174.359 119.545 174.391 119.6C174.422 119.655 174.443 119.716 174.45 119.779C174.458 119.842 174.453 119.906 174.436 119.967C174.419 120.028 174.389 120.085 174.35 120.135C174.31 120.185 174.261 120.226 174.205 120.256C174.149 120.287 174.088 120.306 174.024 120.312C173.961 120.318 173.897 120.312 173.837 120.293C173.776 120.275 173.719 120.244 173.671 120.203C173.225 119.855 172.814 119.698 172.452 119.766C172.113 119.852 171.819 120.064 171.632 120.36C171.59 120.43 171.53 120.489 171.458 120.529C171.386 120.57 171.305 120.591 171.223 120.591Z" fill="#201D40"/>
<path d="M148.651 123.51C146.011 115.996 152.439 111.671 152.439 111.671C152.439 111.671 150.715 111.516 150.508 109.094C151.818 109.496 153.222 109.466 154.512 109.007C163.081 105.905 168.981 105.947 168.981 109.613C168.981 110.919 174.64 110.024 174.165 118.804C174.2 118.184 172.177 114.575 170.266 114.215C168.354 113.854 170.081 116.408 166.087 116.957C162.057 117.51 159.094 116.532 156.634 118.804C154.707 120.785 154.23 130.87 154.523 131.478C153.859 130.101 149.81 126.812 148.651 123.51Z" fill="#201D40"/>
<path d="M176.268 124.848C176.268 124.848 176.632 129.423 175.972 130.839C175.286 129.004 173.812 130.948 172.428 131.131C169.082 131.574 163.046 130.458 162.447 135.484C158.36 136.77 154.53 128.011 154.53 128.011C154.295 137.789 161.45 143.332 171.745 141.715C178.529 140.649 179.158 131.204 176.268 124.848Z" fill="#201D40"/>
<path d="M169.216 134.223C168.496 134.042 167.802 133.77 167.151 133.414C167.062 133.366 166.995 133.285 166.965 133.188C166.936 133.091 166.946 132.987 166.993 132.897C167.041 132.808 167.122 132.741 167.219 132.712C167.316 132.682 167.42 132.692 167.51 132.74C169.094 133.586 170.514 133.828 171.73 133.455C172.649 133.16 173.43 132.542 173.928 131.714C173.979 131.633 174.058 131.574 174.151 131.549C174.243 131.523 174.341 131.534 174.426 131.578C174.511 131.621 174.577 131.696 174.61 131.786C174.643 131.875 174.64 131.974 174.604 132.063C174.018 133.07 173.078 133.823 171.966 134.173C171.071 134.439 170.12 134.456 169.216 134.223Z" fill="#DE623C"/>
<path d="M154.434 128.083C156.156 129.057 156.913 130.972 156.117 132.385C155.322 133.799 153.288 134.154 151.567 133.186C149.845 132.218 149.091 130.293 149.883 128.882C150.675 127.472 152.712 127.115 154.434 128.083Z" fill="#F37A50"/>
<path d="M154.171 132.305C154.226 132.267 154.271 132.216 154.303 132.157C154.777 131.287 154.699 130.386 154.096 129.767C153.794 129.458 153.404 129.251 152.98 129.173C152.555 129.096 152.117 129.152 151.725 129.333C151.672 129.357 151.624 129.392 151.585 129.435C151.546 129.478 151.515 129.528 151.496 129.583C151.477 129.638 151.469 129.697 151.472 129.755C151.476 129.813 151.492 129.87 151.518 129.922C151.544 129.974 151.581 130.02 151.626 130.057C151.67 130.095 151.722 130.123 151.778 130.14C151.834 130.157 151.892 130.162 151.95 130.156C152.008 130.149 152.064 130.131 152.115 130.103C152.343 130.005 152.594 129.979 152.837 130.026C153.08 130.074 153.302 130.193 153.476 130.369C153.812 130.717 153.837 131.203 153.543 131.746C153.496 131.832 153.48 131.931 153.497 132.027C153.513 132.123 153.562 132.21 153.635 132.275C153.708 132.34 153.801 132.378 153.898 132.384C153.995 132.389 154.091 132.361 154.171 132.305Z" fill="#DE623C"/>
<path d="M172.706 294.54C173.786 291.61 176.091 291.284 176.091 291.284C180.573 297.47 191.585 293.673 191.217 302.04C174.477 301.932 167.52 302.04 167.52 302.04C167.541 300.125 167.868 295.558 168.258 293.772L169.129 293.932L172.706 294.54Z" fill="black"/>
<path d="M147.658 294.702C148.738 291.772 151.044 291.447 151.044 291.447C155.527 297.632 166.538 293.837 166.171 302.202C149.431 302.095 142.472 302.202 142.472 302.202C142.495 300.287 142.82 295.721 143.212 293.935L144.082 294.095L147.658 294.702Z" fill="black"/>
<path d="M183.841 196.856C183.841 196.856 186.558 236.499 185.455 245.312C184.351 254.125 180.441 265.426 180.883 294.582C175.425 295.949 167.52 294.582 167.52 294.582C167.52 294.582 166.347 261.62 172.116 246.896C169.771 232.594 162.243 199.838 162.243 199.838L183.841 196.856Z" fill="#393939"/>
<path d="M173.51 197.938C173.51 197.938 168.023 242.444 165.337 250.886C162.651 259.328 157.411 266.466 152.547 295.184C146.939 295.464 141.717 295.184 141.717 295.184C141.717 295.184 142.472 258.756 151.208 250.472C151.502 235.97 149.794 198.225 149.794 198.225L173.51 197.938Z" fill="#575757"/>
<path d="M148.208 147.429C148.208 147.429 157.741 144.093 160.917 145.623C170.793 150.378 173.058 145.623 173.058 145.623C176.214 145.895 185.742 147.429 185.742 147.429C185.742 158.07 186.452 168.747 186.264 176.799C186.127 183.81 187.464 202.893 187.464 202.893C187.464 202.893 176.954 205.647 167.013 205.72C157.071 205.654 146.953 203.004 146.953 203.004C146.953 203.004 147.484 183.679 147.925 176.494C147.782 168.442 148.208 158.042 148.208 147.429Z" fill="#B3B3B3"/>
<path d="M202.698 163.242C198.764 153.855 187.088 147.883 185.754 147.427L183.045 159.48C186.461 161.505 189.699 163.815 192.727 166.384C192.03 169.741 192.15 173.032 190.209 177.276C190.209 177.276 191.896 174.948 193.976 176.325C195.999 177.664 199.721 174.933 199.721 174.933C199.721 174.933 205.696 170.411 202.698 163.242Z" fill="#006F16"/>
<path d="M202.698 163.242C198.764 153.855 187.088 147.883 185.754 147.427L183.045 159.48C186.461 161.505 189.699 163.815 192.727 166.384C192.03 169.741 192.15 173.032 190.209 177.276C190.209 177.276 191.896 174.948 193.976 176.325C195.999 177.664 199.721 174.933 199.721 174.933C199.721 174.933 205.696 170.411 202.698 163.242Z" fill="#939393"/>
<path d="M200.498 186.965C200.565 186.986 200.634 187 200.703 187.007H200.926C201.133 186.985 201.329 186.904 201.49 186.772C201.651 186.64 201.77 186.464 201.831 186.265L212.32 152.446C212.342 152.38 212.356 152.311 212.362 152.241C212.366 152.197 212.366 152.153 212.362 152.109C212.364 152.081 212.364 152.054 212.362 152.027C212.359 152.003 212.354 151.98 212.348 151.957C212.317 151.763 212.232 151.58 212.104 151.431C211.975 151.282 211.807 151.172 211.619 151.113C211.554 151.093 211.488 151.079 211.42 151.071C211.345 151.062 211.268 151.062 211.192 151.071H184.79L174.209 187.007H200.517L200.498 186.965Z" fill="#0CCE6B"/>
<path d="M185.03 151.113C184.761 151.029 184.469 151.055 184.219 151.186C183.969 151.316 183.781 151.54 183.697 151.809L173.277 185.548L173.253 185.628C173.17 185.896 173.197 186.187 173.327 186.436C173.458 186.685 173.681 186.872 173.949 186.956C174.218 187.04 174.51 187.014 174.76 186.884C175.01 186.753 175.198 186.529 175.283 186.26L185.728 152.448C185.77 152.315 185.785 152.174 185.773 152.035C185.76 151.896 185.72 151.76 185.656 151.636C185.591 151.512 185.502 151.402 185.395 151.312C185.288 151.223 185.164 151.155 185.03 151.113Z" fill="#00C44E"/>
<path d="M204.979 172.569C205.075 172.506 205.182 172.459 205.294 172.431C205.283 172.414 205.272 172.398 205.259 172.383C204.603 171.39 204.646 170.206 205.357 169.735C205.473 169.66 205.601 169.606 205.736 169.576C205.552 168.843 205.717 168.142 206.225 167.806C206.428 167.675 206.665 167.609 206.906 167.616C206.675 166.895 206.859 166.138 207.428 165.762C208.14 165.29 209.169 165.588 209.732 166.441C210.294 167.294 210.17 168.356 209.46 168.824C209.283 168.941 209.081 169.013 208.87 169.036C209.343 169.959 209.248 170.969 208.605 171.394C208.49 171.47 208.361 171.524 208.226 171.554C208.412 172.287 208.245 172.987 207.738 173.323C207.551 173.445 207.332 173.512 207.108 173.514C207.343 174.145 207.195 174.823 206.695 175.156C206.095 175.553 205.224 175.297 204.751 174.581C204.277 173.866 204.378 172.966 204.979 172.569Z" fill="#F37A50"/>
<path d="M172.517 170.431L174.924 169.038C174.924 169.038 175.589 165.624 179.451 165.542C179.007 166.973 178.369 169.038 178.369 169.038C178.369 169.038 180.272 170.515 184.785 167.994C189.194 167.003 187.311 170.219 188.773 170.45C190.93 170.798 187.206 175.031 182.797 175.673C177.097 176.512 176.421 175.346 176.421 175.346L173.197 176.472L172.517 170.431Z" fill="#F37A50"/>
<path d="M150.244 174.078C158.288 173.516 172.005 169.551 172.005 169.551C174.202 172.92 173.594 177.386 173.594 177.386C161.1 188.34 142.298 191.881 136.529 189.244C131.261 186.838 134.979 154.772 148.203 147.427C152.745 155.099 150.244 174.078 150.244 174.078Z" fill="#939393"/>
<path d="M279.903 291.566C275.421 297.545 264.409 293.877 264.777 301.964C281.517 301.859 288.474 301.964 288.474 301.964C288.453 300.106 288.126 295.696 287.736 293.971L279.903 291.566Z" fill="black"/>
<path d="M304.95 291.721C300.468 297.701 289.456 294.033 289.823 302.12C306.563 302.016 313.522 302.12 313.522 302.12C313.499 300.262 313.174 295.853 312.782 294.127L304.95 291.721Z" fill="black"/>
<path d="M272.16 200.277C272.16 200.277 269.442 238.603 270.548 247.123C271.653 255.643 275.562 266.566 275.118 294.749C280.575 296.071 288.481 294.749 288.481 294.749C288.481 294.749 289.654 262.889 283.885 248.648C286.232 234.823 293.759 203.156 293.759 203.156L272.16 200.277Z" fill="#393939"/>
<path d="M282.483 201.324C282.483 201.324 287.972 244.351 290.666 252.509C293.359 260.667 298.592 267.57 303.454 295.337C309.063 295.609 315.747 294.228 315.747 294.228C315.747 294.228 313.529 260.12 304.795 252.112C304.499 238.092 306.207 201.603 306.207 201.603L282.483 201.324Z" fill="#575757"/>
<path d="M304.836 130.933C301.861 138.367 294.717 142.499 288.878 140.161C283.039 137.822 280.718 129.904 283.693 122.47C286.668 115.036 293.813 110.903 299.65 113.243C305.488 115.583 307.81 123.499 304.836 130.933Z" fill="#F37A50"/>
<path d="M286.231 124.912C286.108 125.089 285.935 125.226 285.733 125.305C285.532 125.384 285.312 125.402 285.101 125.356C284.889 125.31 284.697 125.202 284.546 125.046C284.396 124.89 284.296 124.694 284.258 124.481C284.219 124.268 284.245 124.049 284.332 123.85C284.418 123.652 284.561 123.484 284.743 123.367C284.925 123.25 285.138 123.19 285.354 123.194C285.57 123.198 285.781 123.266 285.958 123.39C286.196 123.556 286.359 123.809 286.41 124.094C286.461 124.379 286.397 124.674 286.231 124.912Z" fill="black"/>
<path d="M294.422 128.256C294.288 128.448 294.101 128.596 293.882 128.681C293.664 128.766 293.426 128.785 293.197 128.735C292.969 128.684 292.76 128.567 292.598 128.399C292.436 128.23 292.327 128.017 292.286 127.786C292.245 127.556 292.273 127.318 292.367 127.104C292.461 126.889 292.616 126.707 292.813 126.581C293.01 126.455 293.24 126.39 293.474 126.395C293.709 126.399 293.936 126.473 294.128 126.607C294.256 126.696 294.365 126.809 294.448 126.94C294.532 127.071 294.589 127.217 294.617 127.37C294.644 127.523 294.641 127.68 294.608 127.832C294.574 127.984 294.511 128.128 294.422 128.256Z" fill="black"/>
<path d="M287.892 126.658C286.414 127.822 284.565 129.229 284.565 129.229C284.565 129.229 284.546 131.012 286.63 131.785C285.876 131.101 285.215 130.192 285.998 129.14C286.782 128.089 287.892 126.658 287.892 126.658Z" fill="#DE623C"/>
<path d="M296.578 127.542C296.456 127.54 296.339 127.499 296.244 127.423C296.15 127.347 296.083 127.242 296.055 127.124C296.04 127.065 295.674 125.642 294.455 125.637C294.381 125.641 294.307 125.63 294.237 125.605C294.167 125.579 294.103 125.54 294.049 125.489C293.995 125.438 293.952 125.376 293.923 125.308C293.893 125.239 293.878 125.166 293.878 125.091C293.878 125.017 293.893 124.943 293.923 124.875C293.952 124.807 293.995 124.745 294.049 124.694C294.103 124.643 294.167 124.604 294.237 124.578C294.307 124.552 294.381 124.541 294.455 124.546C296.12 124.546 296.92 126.069 297.112 126.87C297.132 126.95 297.133 127.034 297.116 127.115C297.098 127.196 297.062 127.272 297.011 127.337C296.959 127.402 296.894 127.454 296.819 127.49C296.744 127.525 296.662 127.543 296.579 127.542H296.578Z" fill="black"/>
<path d="M287.377 122.597C287.298 122.597 287.221 122.577 287.152 122.539C287.083 122.5 287.026 122.444 286.985 122.376C286.805 122.092 286.523 121.887 286.197 121.805C285.849 121.744 285.464 121.885 285.041 122.223C284.947 122.298 284.826 122.333 284.707 122.32C284.587 122.306 284.477 122.246 284.402 122.151C284.327 122.057 284.292 121.937 284.305 121.817C284.319 121.697 284.379 121.588 284.473 121.513C285.114 120.999 285.751 120.797 286.367 120.912C286.656 120.978 286.928 121.1 287.168 121.272C287.409 121.444 287.613 121.662 287.769 121.913C287.83 122.017 287.847 122.141 287.816 122.257C287.786 122.374 287.711 122.474 287.607 122.535C287.537 122.576 287.458 122.598 287.377 122.597Z" fill="black"/>
<path d="M302.759 131.709C300.609 124.791 303.329 121.116 303.329 121.116C301.482 120.746 300.764 121.385 300.764 121.385C299.756 119.317 300.538 117.834 300.538 117.834C296.72 116.345 294.819 118.817 291.374 119.651C286.658 120.792 280.831 118.91 280.286 113.152C280.268 112.966 280.304 112.779 280.388 112.612C280.473 112.445 280.604 112.306 280.765 112.211C280.926 112.116 281.11 112.068 281.297 112.074C281.484 112.081 281.666 112.14 281.82 112.245C282.576 112.76 283.475 113.023 284.39 112.996C283.77 112.242 283.404 111.312 283.345 110.339C283.341 110.149 283.392 109.962 283.492 109.801C283.592 109.64 283.737 109.511 283.908 109.43C284.08 109.349 284.271 109.32 284.459 109.346C284.647 109.371 284.824 109.451 284.968 109.575C285.948 110.389 287.769 111.161 291.012 110.553C293.171 110.149 298.111 106.692 301.191 107.367C303.707 107.919 305.703 110.06 306.563 113.126C306.563 113.126 312.749 113.767 313.37 120.576C313.98 127.265 306.233 132.397 306.233 132.397L302.759 131.709Z" fill="black"/>
<path d="M301.917 130.555C300.279 131.483 299.567 133.322 300.326 134.662C301.085 136.003 303.029 136.337 304.668 135.409C306.306 134.481 307.018 132.643 306.259 131.3C305.5 129.958 303.555 129.627 301.917 130.555Z" fill="#F37A50"/>
<path d="M302.182 134.578C302.13 134.541 302.087 134.493 302.056 134.437C301.602 133.603 301.672 132.752 302.244 132.158C302.531 131.861 302.903 131.661 303.308 131.585C303.714 131.509 304.133 131.562 304.507 131.735C304.598 131.788 304.666 131.873 304.696 131.974C304.726 132.075 304.717 132.183 304.67 132.277C304.623 132.371 304.541 132.444 304.443 132.48C304.344 132.516 304.235 132.513 304.138 132.472C303.921 132.379 303.681 132.354 303.449 132.401C303.217 132.447 303.005 132.562 302.84 132.731C302.521 133.06 302.491 133.527 302.782 134.042C302.826 134.124 302.842 134.218 302.826 134.309C302.81 134.401 302.764 134.484 302.695 134.546C302.626 134.608 302.538 134.645 302.446 134.651C302.353 134.657 302.261 134.631 302.185 134.578H302.182Z" fill="#DE623C"/>
<path d="M284.905 134.161C284.87 134.103 284.852 134.036 284.854 133.969C284.856 133.901 284.878 133.835 284.917 133.78C284.956 133.724 285.011 133.681 285.074 133.656C285.137 133.631 285.206 133.625 285.272 133.639C286.344 133.871 287.429 134.041 288.521 134.149C289.615 134.236 290.713 134.261 291.809 134.224C291.878 134.222 291.945 134.24 292.003 134.275C292.061 134.311 292.108 134.363 292.137 134.425C292.165 134.487 292.175 134.557 292.165 134.624C292.155 134.692 292.125 134.755 292.079 134.805C291.451 135.502 290.19 136.546 288.322 136.388C286.454 136.23 285.391 134.976 284.905 134.161Z" fill="white"/>
<path d="M277.046 143.9C277.046 143.9 277.327 143.142 253.235 143.337L246.776 150.972C253.461 156.332 275.849 157.284 275.849 157.284L277.046 143.9Z" fill="#393939"/>
<path d="M285.802 143.278L293.399 142.57L300.751 144.621L292.467 153.145L285.802 143.278Z" fill="#939393"/>
<path d="M288.436 147.193C291.533 149.734 292.165 151.491 298.743 148.093L299.729 137.979L289.02 137.135L288.436 147.193Z" fill="#F37A50"/>
<path d="M302.702 148.691L300.45 147.8L300.751 144.621L294.504 149.636L292.741 149.917L291.056 149.326L285.802 143.28L285.532 146.463L283.545 146.861L276.38 148.021L275.527 187.793L272.7 201.324C282.208 204.488 292.84 205.276 303.292 203.835L302.944 190.255L310.369 151.386L302.702 148.691Z" fill="#939393"/>
<path d="M291.367 153.935L286.879 184.301L289.363 187.756L292.605 185.266L293.707 154.188L291.367 153.935Z" fill="#393939"/>
<path d="M291.101 150.351L292.741 149.917L294.412 150.647L293.705 154.247L291.352 154.036L291.101 150.351Z" fill="#393939"/>
<path d="M285.697 143.535L284.571 180.215L279.715 203.835C279.715 203.835 272.038 203.062 267.32 198.572L273.366 180.792L275.433 143.632L285.697 143.535Z" fill="#575757"/>
<path d="M285.697 143.535L284.578 179.725L278.99 151.989L285.697 143.535Z" fill="#393939"/>
<path d="M301.325 145.879L291.355 205.348C291.355 205.348 304.586 206.974 310.026 203.396L307.067 183.847L310.675 150.658L301.325 145.879Z" fill="#575757"/>
<path d="M301.325 145.879L295.498 180.735L305.931 154.438L301.325 145.879Z" fill="#393939"/>
<path d="M235.444 110.909C235.967 112.763 236.141 114.765 238.486 115.765C238.486 115.765 238.138 121.923 238.399 126.973C238.399 126.973 244.093 120.551 244.091 120.545C243.766 118.51 243.501 114.659 243.815 112.474C243.896 111.907 244.008 111.343 244.097 110.773C244.342 109.393 244.748 107.979 243.907 106.313C240.657 99.8713 241.75 97.756 241.296 97.4339C240.568 97.1118 238.858 98.4089 239.825 101.572C240.761 104.633 240.521 106.135 240.521 106.135C240.521 106.135 238.064 105.672 237.194 106.531C236.82 106.931 234.825 108.74 235.444 110.909Z" fill="#F37A50"/>
<path d="M236.766 119.586C240.084 118.48 241.832 117.982 244.414 117.982C250.515 136.167 254.859 143.019 253.05 148.24C251.537 152.593 246.752 152.245 244.414 148.982C241.325 144.68 238.594 128.336 236.766 119.586Z" fill="#393939"/>
<path d="M310.682 150.658L329.905 180.735L352.737 193.627L345.7 200.635L322.794 190.593L307.073 168.411L310.682 150.658Z" fill="#393939"/>
<path d="M292.741 149.917C292.741 149.917 289.914 152.773 287.313 153.504L284.238 145.373L285.805 143.284L292.741 149.917Z" fill="white"/>
<path d="M292.741 149.917C293.922 151.773 295.534 153.315 297.441 154.412L301.915 146.982L300.747 144.621L292.741 149.917Z" fill="white"/>
<path d="M313.665 235.542H145.811C141.866 235.542 138.674 233.39 138.674 230.735C138.674 228.08 141.872 225.928 145.811 225.928H313.665C317.609 225.928 320.802 228.08 320.802 230.735C320.809 233.39 317.609 235.542 313.665 235.542Z" fill="#00902B"/>
<path d="M208.722 303.278C208.313 303.279 207.912 303.169 207.561 302.96C207.21 302.752 206.922 302.452 206.728 302.093C206.533 301.734 206.44 301.329 206.457 300.921C206.474 300.513 206.601 300.117 206.824 299.775L251.144 231.854L254.937 234.33L210.619 302.251C210.414 302.566 210.132 302.826 209.801 303.005C209.469 303.184 209.099 303.278 208.722 303.278Z" fill="#00902B"/>
<path d="M250.756 303.278C251.164 303.278 251.565 303.168 251.915 302.96C252.266 302.751 252.554 302.451 252.748 302.092C252.943 301.733 253.036 301.328 253.019 300.92C253.002 300.512 252.875 300.117 252.652 299.775L208.334 231.854L204.539 234.33L248.858 302.251C249.064 302.566 249.345 302.826 249.677 303.005C250.008 303.184 250.379 303.278 250.756 303.278Z" fill="#00902B"/>
<path d="M320.007 302.236C319.432 302.236 318.88 302.008 318.473 301.601C318.067 301.194 317.838 300.642 317.838 300.067V261.621H322.178V300.067C322.178 300.352 322.122 300.634 322.013 300.898C321.904 301.161 321.744 301.4 321.542 301.602C321.341 301.803 321.101 301.963 320.838 302.072C320.575 302.181 320.292 302.237 320.007 302.236Z" fill="#00C44E"/>
<path d="M335.233 302.236C334.658 302.236 334.106 302.008 333.699 301.601C333.292 301.194 333.064 300.642 333.064 300.067V261.621H337.402V300.067C337.402 300.642 337.174 301.194 336.767 301.601C336.36 302.008 335.808 302.236 335.233 302.236Z" fill="#00C44E"/>
<path d="M355.21 302.236C354.925 302.237 354.643 302.181 354.379 302.072C354.116 301.963 353.877 301.803 353.675 301.602C353.473 301.4 353.313 301.161 353.204 300.898C353.095 300.634 353.039 300.352 353.039 300.067V261.621H357.379V300.067C357.379 300.642 357.151 301.194 356.744 301.601C356.337 302.008 355.785 302.236 355.21 302.236Z" fill="#00C44E"/>
<path d="M370.436 302.236C369.86 302.236 369.309 302.008 368.902 301.601C368.495 301.194 368.267 300.642 368.267 300.067V261.621H372.607V300.067C372.607 300.352 372.55 300.634 372.441 300.898C372.332 301.161 372.172 301.4 371.971 301.602C371.769 301.803 371.53 301.963 371.266 302.072C371.003 302.181 370.721 302.237 370.436 302.236Z" fill="#00C44E"/>
<path d="M346.768 204.53V250.281C346.768 250.531 346.668 250.771 346.492 250.947C346.315 251.124 346.076 251.223 345.826 251.223H317.461C316.087 251.223 314.769 251.769 313.797 252.741C312.825 253.713 312.279 255.031 312.279 256.406C312.279 257.78 312.826 259.098 313.797 260.07C314.769 261.041 316.087 261.587 317.461 261.587H351.95C353.324 261.587 354.642 261.041 355.614 260.07C356.585 259.098 357.131 257.78 357.131 256.406V204.525C357.131 203.151 356.585 201.833 355.614 200.861C354.642 199.889 353.324 199.344 351.95 199.344C351.269 199.344 350.595 199.478 349.966 199.738C349.337 199.999 348.766 200.381 348.284 200.863C347.803 201.344 347.421 201.916 347.161 202.545C346.901 203.175 346.767 203.849 346.768 204.53Z" fill="#59D887"/>
<path d="M352.45 251.563V199.848H373.876V251.563H352.45Z" fill="#59D887"/>
<path d="M352.45 251.563V199.848H373.876V251.563H352.45Z" stroke="black"/>
<path d="M352.45 251.563V199.848H373.876V251.563H352.45Z" stroke="black" stroke-opacity="0.2"/>
<path d="M368.911 204.825V250.577C368.911 250.826 368.811 251.066 368.635 251.243C368.458 251.419 368.219 251.518 367.969 251.518H339.597C338.223 251.518 336.905 252.064 335.933 253.036C334.961 254.008 334.415 255.327 334.415 256.701C334.415 258.076 334.961 259.393 335.933 260.365C336.905 261.337 338.223 261.882 339.597 261.882H374.086C375.46 261.882 376.778 261.336 377.749 260.364C378.721 259.393 379.267 258.075 379.267 256.701V204.82C379.267 203.446 378.721 202.129 377.749 201.157C376.778 200.185 375.46 199.639 374.086 199.639C372.712 199.641 371.395 200.188 370.425 201.161C369.454 202.133 368.91 203.451 368.911 204.825Z" fill="#00C44E"/>
<path d="M137.006 302.202C137.581 302.202 138.133 301.973 138.54 301.566C138.946 301.16 139.175 300.608 139.175 300.033V261.587H134.837V300.033C134.837 300.608 135.065 301.16 135.472 301.566C135.879 301.973 136.431 302.202 137.006 302.202Z" fill="#00C44E"/>
<path d="M121.78 302.202C122.065 302.202 122.347 302.146 122.611 302.037C122.874 301.928 123.113 301.769 123.315 301.567C123.517 301.366 123.676 301.126 123.786 300.863C123.895 300.6 123.951 300.318 123.951 300.033V261.587H119.611V300.033C119.611 300.608 119.839 301.16 120.246 301.566C120.653 301.973 121.205 302.202 121.78 302.202Z" fill="#00C44E"/>
<path d="M101.803 302.202C102.378 302.202 102.93 301.973 103.337 301.566C103.744 301.16 103.972 300.608 103.972 300.033V261.587H99.6375V300.033C99.6375 300.607 99.8655 301.159 100.272 301.565C100.678 301.972 101.228 302.201 101.803 302.202Z" fill="#00C44E"/>
<path d="M86.5808 302.202C87.1561 302.202 87.7079 301.973 88.1147 301.566C88.5214 301.16 88.75 300.608 88.75 300.033V261.587H84.4082V300.033C84.4082 300.318 84.4644 300.6 84.5737 300.864C84.6829 301.127 84.843 301.366 85.0448 301.568C85.2466 301.769 85.4861 301.929 85.7497 302.038C86.0132 302.147 86.2957 302.202 86.5808 302.202Z" fill="#00C44E"/>
<path d="M110.584 204.53V250.281C110.585 250.531 110.684 250.77 110.861 250.947C111.038 251.124 111.278 251.223 111.528 251.223H139.892C140.573 251.223 141.247 251.356 141.876 251.617C142.505 251.877 143.076 252.259 143.557 252.74C144.039 253.222 144.42 253.793 144.681 254.422C144.941 255.051 145.075 255.725 145.075 256.406C145.075 257.78 144.529 259.098 143.557 260.069C142.586 261.041 141.268 261.587 139.894 261.587H105.403C104.029 261.587 102.711 261.041 101.739 260.069C100.767 259.098 100.221 257.78 100.221 256.406V204.525C100.221 203.15 100.767 201.832 101.739 200.861C102.711 199.889 104.029 199.343 105.403 199.343C106.084 199.343 106.758 199.478 107.387 199.738C108.016 199.999 108.587 200.381 109.069 200.863C109.55 201.344 109.931 201.916 110.191 202.545C110.451 203.175 110.585 203.849 110.584 204.53Z" fill="#59D887"/>
<path d="M82.9772 252.064H105.403V199.349H82.9772V252.064Z" fill="#59D887"/>
<path d="M88.1997 204.825V250.577C88.2001 250.827 88.2997 251.066 88.4767 251.243C88.6536 251.419 88.8933 251.518 89.1432 251.518H117.508C118.188 251.518 118.862 251.652 119.491 251.913C120.119 252.173 120.691 252.555 121.172 253.037C121.653 253.518 122.034 254.089 122.295 254.718C122.555 255.347 122.689 256.021 122.688 256.701C122.688 258.075 122.143 259.393 121.171 260.365C120.199 261.337 118.882 261.882 117.508 261.882H83.0188C81.6447 261.882 80.3269 261.337 79.3553 260.365C78.3837 259.393 77.8379 258.075 77.8379 256.701V204.82C77.8379 203.446 78.3837 202.128 79.3553 201.157C80.3269 200.185 81.6447 199.639 83.0188 199.639C83.6996 199.639 84.3737 199.773 85.0026 200.034C85.6316 200.295 86.2029 200.677 86.6841 201.158C87.1652 201.64 87.5467 202.212 87.8068 202.841C88.0669 203.47 88.2004 204.145 88.1997 204.825Z" fill="#00C44E"/>
<path d="M335.225 187.047C330.44 185.32 323.039 181.545 327.961 174.648C332.882 167.75 332.748 170.76 330.979 162.381C329.211 154.001 335.168 147.408 340.848 149.078C346.529 150.747 347.986 155.345 354.939 154.179C361.892 153.013 367.686 159.527 365.066 165.173C362.446 170.819 361.327 173.53 363.776 176.664C366.225 179.797 377.268 183.156 372.655 190.644C368.041 198.132 365.938 197.672 367.538 201.509C369.138 205.346 365.449 209.718 359.048 209.121C352.646 208.524 346.853 206.104 344.506 198.957C342.159 191.81 335.225 187.047 335.225 187.047Z" fill="#191919"/>
<path d="M318.293 295.885L314.512 297.015L311.666 294.101C311.802 293.899 311.666 291.949 311.231 289.87L318.293 288.704C318.577 290.852 318.293 293.711 318.293 295.885Z" fill="#F37A50"/>
<path d="M314.542 296.335C313.642 293.974 311.72 293.711 311.72 293.711C307.984 298.694 298.809 295.636 299.114 302.376C313.066 302.29 318.863 302.376 318.863 302.376C318.845 300.828 318.569 297.153 318.246 295.717L317.521 295.845L314.542 296.335Z" fill="#191919"/>
<path d="M293.145 296.588L289.207 296.857L286.944 294.445C287.118 294.271 287.549 291.292 287.577 289.168L294.214 289.463C293.997 291.857 293.64 294.236 293.145 296.588Z" fill="#F37A50"/>
<path d="M289.635 296.335C288.735 293.974 286.813 293.711 286.813 293.711C283.077 298.694 273.902 295.636 274.207 302.376C288.159 302.29 293.956 302.376 293.956 302.376C293.938 300.828 293.662 297.153 293.34 295.717L292.614 295.845L289.635 296.335Z" fill="#191919"/>
<path d="M332.962 230.746C322.214 232.192 291.935 243.415 290.246 245.445C286.764 249.639 288.597 272.456 286.938 291.285L295.74 291.807C299.957 276.474 299.621 269.857 301.527 252.269C301.527 252.269 336.12 254.86 348.62 246.421C361.513 237.718 341.654 228.684 332.962 230.746Z" fill="#6B6B6B"/>
<path d="M318.955 208.391C321.495 208.825 322.473 210.863 323.086 214.617C313.408 220.319 299.032 220.724 299.032 220.724L294.45 218.461C294.45 218.461 305.978 214.305 318.955 208.391Z" fill="#DE623C"/>
<path d="M345.417 197.663C341.181 203.818 324.958 217.053 322.263 217.469L319.009 208.363C319.009 208.363 334.851 191.217 337.734 188.187C342.723 182.928 352.351 187.628 345.417 197.663Z" fill="#DE623C"/>
<path d="M327.574 196.677C330.971 193.021 335.394 184.759 341.153 185.345C346.912 185.932 347.325 192.041 345.591 195.33C343.857 198.618 337.865 206.724 337.865 206.724L327.574 196.677Z" fill="#939393"/>
<path d="M328.617 212.16C331.054 213.001 332.447 220.691 331.765 221.274C321.305 225.416 299.544 220.937 299.544 220.937L298.388 216.995C298.388 216.995 314.866 215.985 328.617 212.16Z" fill="#F37A50"/>
<path d="M363.034 237.206C360.642 224.866 359.612 220.493 358.618 214.685C356.163 200.33 363.383 190.243 351.005 183.365L341.983 184.818C334.691 192.492 330.199 199.458 329.815 204.27C329.292 210.477 335.445 213.846 335.445 213.846L332.966 230.745C332.966 230.745 332.384 232.124 342.556 234.053C352.728 235.982 363.034 237.206 363.034 237.206Z" fill="#B3B3B3"/>
<path d="M355.616 199.413C351.381 205.638 333.284 221.46 330.565 221.601L328.617 212.16C328.617 212.16 345.058 192.893 347.941 189.827C352.923 184.508 362.549 189.263 355.616 199.413Z" fill="#F37A50"/>
<path d="M338.314 199.456C341.473 194.858 347.849 186.374 353.604 186.961C359.359 187.548 359.775 193.657 358.042 196.946C356.308 200.234 350.326 208.34 350.326 208.34L338.314 199.456Z" fill="#939393"/>
<path d="M298.388 216.995C295.061 216.176 287.828 213.746 284.916 221.365C285.645 222.757 288.324 219.312 289.475 218.992C291.301 218.483 292.868 219.443 294.248 220.764C296.231 222.658 299.544 220.938 299.544 220.938L298.388 216.995Z" fill="#F37A50"/>
<path d="M295.799 225.855H264.545V221.657H299.997C299.997 222.208 299.888 222.754 299.677 223.263C299.466 223.773 299.157 224.235 298.767 224.625C298.378 225.015 297.915 225.324 297.406 225.535C296.896 225.746 296.351 225.855 295.799 225.855Z" fill="#263238"/>
<path d="M248.484 199.482L264.545 225.855L268.26 223.901L250.237 193.821C249.255 194.34 248.518 195.228 248.19 196.289C247.861 197.35 247.967 198.499 248.484 199.482Z" fill="#263238"/>
<path d="M355.131 171.606C353.611 177.953 348.341 182.132 343.352 180.939C338.362 179.746 335.558 173.627 337.085 167.283C338.611 160.939 343.874 156.759 348.864 157.951C353.853 159.144 356.651 165.258 355.131 171.606Z" fill="#F37A50"/>
<path d="M352.716 174.95L344.431 180.086C344.431 180.086 343.697 183.742 343.329 184.935C342.572 187.386 345.472 188.458 347.925 186.932C350.378 185.405 351.001 183.364 351.001 183.364L352.716 174.95Z" fill="#F37A50"/>
<path d="M336.507 164.86C338.862 165.062 343.961 164.654 345.822 162.449C347.149 166.926 352.786 171.19 357.448 173.189C357.634 168.594 357.601 160.131 349.363 156.629C342.892 153.869 336.507 164.86 336.507 164.86Z" fill="#191919"/>
<path d="M339.414 168.951C339.335 169.109 339.212 169.239 339.059 169.327C338.905 169.414 338.73 169.454 338.554 169.442C338.378 169.43 338.21 169.365 338.071 169.258C337.931 169.15 337.827 169.003 337.771 168.836C337.715 168.669 337.71 168.489 337.756 168.319C337.803 168.149 337.898 167.996 338.031 167.88C338.164 167.765 338.329 167.691 338.503 167.669C338.678 167.646 338.856 167.676 339.014 167.755C339.225 167.861 339.386 168.046 339.461 168.27C339.536 168.494 339.519 168.739 339.414 168.951Z" fill="black"/>
<path d="M346.416 170.678C346.331 170.848 346.197 170.99 346.031 171.085C345.866 171.179 345.676 171.223 345.486 171.21C345.295 171.196 345.113 171.127 344.962 171.01C344.812 170.894 344.699 170.735 344.638 170.554C344.578 170.373 344.572 170.178 344.622 169.994C344.672 169.81 344.776 169.645 344.919 169.52C345.063 169.395 345.241 169.315 345.43 169.291C345.619 169.267 345.812 169.299 345.982 169.384C346.096 169.441 346.197 169.519 346.28 169.614C346.363 169.71 346.427 169.821 346.467 169.941C346.507 170.061 346.524 170.188 346.515 170.314C346.506 170.441 346.472 170.564 346.416 170.678Z" fill="black"/>
<path d="M347.483 169.879C347.415 169.845 347.36 169.789 347.328 169.72C346.844 168.676 345.538 168.474 345.524 168.472C345.436 168.459 345.357 168.411 345.304 168.34C345.251 168.268 345.228 168.179 345.241 168.091C345.253 168.003 345.3 167.924 345.371 167.871C345.442 167.817 345.531 167.794 345.618 167.807C345.688 167.816 347.298 168.059 347.937 169.438C347.974 169.519 347.978 169.611 347.947 169.695C347.916 169.778 347.854 169.846 347.774 169.884C347.728 169.905 347.678 169.915 347.628 169.915C347.577 169.914 347.528 169.901 347.483 169.879Z" fill="#191919"/>
<path d="M337.47 167.659C337.436 167.643 337.406 167.621 337.381 167.595C337.318 167.531 337.283 167.446 337.283 167.357C337.283 167.268 337.318 167.183 337.381 167.119C337.683 166.822 338.06 166.612 338.472 166.511C338.884 166.41 339.315 166.423 339.72 166.547C339.804 166.575 339.874 166.637 339.913 166.716C339.952 166.796 339.957 166.888 339.929 166.972C339.9 167.056 339.839 167.125 339.759 167.165C339.679 167.204 339.587 167.209 339.503 167.18C339.215 167.098 338.911 167.093 338.621 167.166C338.331 167.239 338.066 167.389 337.852 167.598C337.803 167.647 337.739 167.679 337.671 167.69C337.602 167.701 337.532 167.69 337.47 167.659Z" fill="#191919"/>
<path d="M339.987 170.89C339.498 171.394 339.069 171.912 338.594 172.207C338.518 172.255 338.463 172.331 338.442 172.418C338.42 172.506 338.434 172.599 338.479 172.677C338.855 173.345 339.957 173.895 340.633 174.183C340.653 174.191 340.676 174.192 340.697 174.186C340.719 174.179 340.737 174.165 340.749 174.146C340.761 174.127 340.765 174.105 340.762 174.083C340.759 174.061 340.748 174.041 340.732 174.026C340.049 173.427 339.757 172.981 339.633 172.746C339.603 172.687 339.588 172.622 339.588 172.556C339.588 172.489 339.603 172.424 339.633 172.365C339.773 172.088 340.051 171.524 340.239 171.059C340.249 171.027 340.249 170.992 340.237 170.959C340.226 170.927 340.204 170.9 340.176 170.881C340.148 170.862 340.114 170.852 340.08 170.854C340.046 170.856 340.013 170.869 339.987 170.89Z" fill="#DE623C"/>
<path d="M352.732 171.648C351.513 172.59 351.165 174.156 351.935 175.149C352.704 176.141 354.313 176.179 355.524 175.238C356.736 174.296 357.091 172.727 356.322 171.735C355.552 170.742 353.944 170.704 352.732 171.648Z" fill="#F37A50"/>
<path d="M353.421 174.861C353.375 174.838 353.334 174.804 353.303 174.762C352.838 174.142 352.794 173.447 353.186 172.901C353.382 172.628 353.657 172.424 353.974 172.315C354.292 172.206 354.635 172.198 354.957 172.293C355.001 172.305 355.042 172.326 355.077 172.354C355.113 172.383 355.142 172.418 355.164 172.458C355.185 172.499 355.199 172.543 355.203 172.588C355.206 172.634 355.201 172.679 355.187 172.723C355.172 172.766 355.149 172.806 355.119 172.84C355.089 172.874 355.052 172.902 355.011 172.921C354.97 172.941 354.925 172.951 354.879 172.953C354.834 172.955 354.788 172.947 354.746 172.93C354.56 172.882 354.364 172.89 354.183 172.955C354.002 173.02 353.844 173.137 353.731 173.292C353.513 173.597 353.557 173.975 353.839 174.358C353.892 174.429 353.915 174.518 353.903 174.607C353.891 174.695 353.844 174.774 353.773 174.828C353.722 174.864 353.663 174.887 353.601 174.892C353.54 174.898 353.477 174.887 353.421 174.861Z" fill="#DE623C"/>
<path d="M344.99 232.706C334.242 234.153 303.916 243.982 302.227 246.012C298.745 250.206 306.503 268.164 308.985 291.278H319.361C319.251 274.804 320.567 259.649 315.499 254.28C315.499 254.28 344.572 252.339 359.057 252.339C366.443 252.346 370.531 227.385 344.99 232.706Z" fill="#939393"/>
<path d="M339.533 176.237C339.5 176.194 339.482 176.143 339.479 176.089C339.475 176.036 339.488 175.983 339.514 175.937C339.541 175.89 339.581 175.853 339.629 175.829C339.676 175.805 339.73 175.795 339.783 175.802C341.491 176.03 343.222 176.03 344.929 175.802C344.982 175.795 345.036 175.805 345.084 175.829C345.132 175.853 345.171 175.89 345.198 175.937C345.225 175.983 345.237 176.036 345.234 176.089C345.231 176.143 345.212 176.194 345.18 176.237C344.738 176.832 343.826 177.734 342.354 177.732C340.883 177.731 339.975 176.827 339.533 176.237Z" fill="white"/>
<path d="M133.127 214.955C131.075 216.321 131.644 223.766 132.418 224.143C143.092 225.447 161.119 216.605 161.119 216.605L161.824 212.649C161.824 212.649 146.769 215.17 133.127 214.955Z" fill="#F37A50"/>
<path d="M109.676 202.048C113.492 208.142 130.192 223.927 132.784 224.159L134.992 215.214C134.992 215.214 120.006 196.209 117.358 193.175C112.797 187.912 103.428 192.097 109.676 202.048Z" fill="#F37A50"/>
<path d="M118.803 169.447C119.263 163.199 117.456 157.68 112.475 154.868C107.426 152.02 101.102 154.814 101.102 154.814C101.102 154.814 95.7468 152.91 90.8967 158.255C86.0465 163.599 89.7146 168.302 87.7283 172.2C86.5531 174.508 80.5767 174.985 82.1208 182.503C82.5665 184.672 85.1744 186.131 87.3835 186.276C91.264 186.532 94.8694 185.031 96.4501 186.532C101.634 191.476 113.123 189.688 114.729 185.165C115.229 183.762 125.563 186.476 124.532 176.925C124.01 172.081 118.392 175.018 118.803 169.447Z" fill="#191919"/>
<path d="M109.334 189.638L101.129 188.124L98.0532 192.217L104.59 205.622L114.209 197.461L109.334 189.638Z" fill="#F37A50"/>
<path d="M119.969 221.962C119.828 219.412 123.951 208.936 121.78 203.665C120.201 199.424 117.56 192.303 114.327 191.116C112.802 190.555 111.234 190.165 109.334 189.639C109.334 189.639 110.407 194.984 108.171 195.163C103.871 195.512 101.129 188.125 101.129 188.125C98.8106 187.904 88.1737 191.398 88.179 192.272C88.2033 199.112 93.762 209.095 95.5795 216.492C96.295 224.48 93.5078 234.04 93.4904 234.947C93.4904 234.947 110.602 239.759 120.744 234.174C120.963 233.397 120.163 225.484 119.969 221.962Z" fill="#939393"/>
<path d="M96.0723 226.741C96.0723 226.741 92.2946 236.271 91.3719 242.27C90.4493 248.27 95.6493 252.119 95.6493 252.119H138.883C138.883 252.119 143.508 244.614 142.178 239.434C140.848 234.255 137.779 233.428 137.779 233.428L96.0723 226.741Z" fill="#939393"/>
<path d="M139.462 233.156C133.944 232.378 117.924 238.6 111.086 252.119H130.202L139.462 233.156Z" fill="#DE623C"/>
<path d="M133.411 238.132C134.154 237.29 134.801 236.369 135.342 235.385C136.954 232.547 140.836 232.066 143.028 234.484C150.996 243.269 167.982 263.296 171.768 265.789C172.839 266.485 179.08 270.087 185.016 269.377C185.016 269.377 187.946 270.491 185.995 272.819C184.99 274.015 169.907 275.256 169.907 275.256L168.732 270.827C159.953 264.33 149.023 264.797 139.756 252.918C134.652 246.372 133.411 238.132 133.411 238.132Z" fill="#DE623C"/>
<path d="M172.96 277.807L179.022 281.74L179.856 280.746L174.942 276.169C177.737 273.963 184.215 275.803 184.215 275.803C186.336 274.433 190.472 269.988 190.899 267.607C189.539 265.914 185.016 269.396 185.016 269.396C185.19 270.15 183.752 272.763 182.615 273.209C177.673 274.276 172.748 272.871 168.73 270.831C168.73 270.824 165.372 275.913 172.96 277.807Z" fill="#191919"/>
<path d="M133.32 239.326C132.78 239.471 132.293 239.771 131.922 240.19C131.55 240.609 131.31 241.128 131.231 241.682C130.8 244.75 128.566 250.958 131.579 257.46C138.994 273.425 143.372 283.944 144.149 288.063C142.213 291.692 149.935 301.6 150.05 302.249L155.609 300.508C155.609 300.508 152.42 295.764 151.271 293.906C148.536 289.482 148.088 284.054 147.644 279.846C145.747 261.881 149.009 250.538 136.012 240C135.249 239.377 134.281 239.069 133.32 239.326Z" fill="#F37A50"/>
<path d="M141.388 295.669L141.934 302.883L143.231 302.944L143.896 296.245C147.347 297.131 149.815 303.399 149.815 303.399C152.192 304.253 158.234 304.847 160.386 303.747C160.908 301.638 155.397 300.153 155.397 300.153C154.897 300.744 151.953 301.198 150.909 300.557C147.065 297.274 144.976 292.507 144.161 288.073C144.156 288.064 138.285 288.48 141.388 295.669Z" fill="#191919"/>
<path d="M107.261 182.938L100.599 181.94L101.13 188.124C101.13 188.124 102.404 190.925 103.884 191.115L109.334 189.642L107.261 182.938Z" fill="#F37A50"/>
<path d="M94.4342 173.996C96.1542 181.179 102.122 185.906 107.762 184.557C113.403 183.208 116.584 176.287 114.864 169.104C113.144 161.921 107.176 157.194 101.535 158.545C95.8948 159.896 92.7142 166.813 94.4342 173.996Z" fill="#F37A50"/>
<path d="M112.219 170.991C112.308 171.17 112.448 171.319 112.621 171.418C112.794 171.518 112.993 171.564 113.192 171.55C113.392 171.536 113.582 171.464 113.74 171.342C113.899 171.22 114.017 171.054 114.081 170.864C114.144 170.675 114.15 170.471 114.098 170.278C114.045 170.085 113.937 169.912 113.786 169.781C113.636 169.65 113.45 169.566 113.251 169.541C113.053 169.516 112.852 169.55 112.673 169.639C112.554 169.698 112.449 169.779 112.361 169.879C112.274 169.979 112.208 170.095 112.166 170.221C112.123 170.347 112.106 170.479 112.115 170.611C112.125 170.744 112.16 170.873 112.219 170.991Z" fill="black"/>
<path d="M104.296 172.946C104.393 173.139 104.544 173.3 104.731 173.407C104.919 173.514 105.134 173.563 105.349 173.548C105.564 173.533 105.77 173.455 105.941 173.323C106.112 173.191 106.24 173.011 106.308 172.806C106.377 172.602 106.383 172.381 106.327 172.173C106.27 171.965 106.153 171.778 105.99 171.636C105.827 171.494 105.626 171.404 105.412 171.377C105.198 171.349 104.981 171.386 104.787 171.482C104.528 171.611 104.331 171.838 104.239 172.113C104.147 172.387 104.168 172.687 104.296 172.946Z" fill="black"/>
<path d="M103.088 172.041C103.164 172.004 103.225 171.943 103.262 171.867C103.809 170.687 105.289 170.457 105.302 170.453C105.352 170.446 105.399 170.43 105.442 170.404C105.485 170.379 105.523 170.346 105.553 170.306C105.583 170.266 105.605 170.22 105.617 170.172C105.63 170.124 105.632 170.074 105.625 170.024C105.618 169.975 105.602 169.927 105.576 169.884C105.551 169.841 105.518 169.804 105.478 169.774C105.438 169.744 105.393 169.722 105.344 169.71C105.296 169.697 105.246 169.694 105.196 169.701C105.118 169.713 103.297 169.987 102.573 171.548C102.531 171.64 102.526 171.744 102.561 171.838C102.596 171.932 102.666 172.009 102.757 172.052C102.81 172.075 102.867 172.087 102.924 172.085C102.981 172.083 103.037 172.068 103.088 172.041Z" fill="#191919"/>
<path d="M114.42 169.529C114.457 169.511 114.491 169.486 114.52 169.456C114.556 169.421 114.584 169.379 114.603 169.333C114.622 169.287 114.632 169.237 114.632 169.188C114.632 169.138 114.622 169.088 114.603 169.042C114.584 168.996 114.556 168.955 114.52 168.919C114.179 168.583 113.752 168.345 113.287 168.231C112.821 168.117 112.333 168.13 111.874 168.27C111.779 168.303 111.7 168.372 111.656 168.462C111.612 168.553 111.605 168.657 111.638 168.752C111.67 168.848 111.739 168.926 111.83 168.971C111.92 169.015 112.024 169.022 112.12 168.989C112.445 168.895 112.789 168.89 113.117 168.972C113.445 169.055 113.746 169.223 113.988 169.459C114.044 169.514 114.115 169.55 114.193 169.563C114.27 169.575 114.349 169.563 114.42 169.529Z" fill="#191919"/>
<path d="M111.571 173.185C112.125 173.754 112.616 174.341 113.138 174.675C113.224 174.73 113.286 174.816 113.31 174.915C113.335 175.014 113.321 175.119 113.271 175.208C112.842 175.963 111.598 176.587 110.833 176.912C110.811 176.919 110.787 176.919 110.765 176.911C110.743 176.903 110.724 176.888 110.711 176.868C110.698 176.848 110.692 176.825 110.694 176.801C110.696 176.778 110.705 176.756 110.72 176.738C111.491 176.063 111.824 175.565 111.963 175.291C111.997 175.224 112.014 175.15 112.014 175.075C112.014 174.999 111.997 174.925 111.963 174.858C111.805 174.546 111.49 173.909 111.277 173.382C111.264 173.362 111.255 173.341 111.251 173.318C111.246 173.295 111.246 173.272 111.251 173.249C111.255 173.226 111.264 173.204 111.277 173.185C111.29 173.166 111.307 173.149 111.326 173.136C111.345 173.123 111.367 173.114 111.39 173.11C111.413 173.105 111.436 173.105 111.459 173.11C111.482 173.114 111.503 173.123 111.523 173.136C111.542 173.149 111.559 173.165 111.571 173.185Z" fill="#DE623C"/>
<path d="M97.1498 174.041C98.5199 175.109 98.9237 176.883 98.0516 178.004C97.1794 179.125 95.3584 179.172 93.9883 178.105C92.6182 177.038 92.2143 175.263 93.0865 174.142C93.9587 173.021 95.778 172.976 97.1498 174.041Z" fill="#F37A50"/>
<path d="M96.3681 177.679C96.4213 177.653 96.4674 177.615 96.5022 177.567C97.0244 176.871 97.0784 176.08 96.6345 175.462C96.4142 175.152 96.1029 174.919 95.7438 174.794C95.3847 174.669 94.9956 174.659 94.6307 174.766C94.5834 174.782 94.5396 174.806 94.5019 174.839C94.4641 174.872 94.4332 174.911 94.4108 174.956C94.3884 175 94.375 175.049 94.3714 175.099C94.3677 175.148 94.3739 175.198 94.3896 175.246C94.4052 175.293 94.4301 175.337 94.4626 175.374C94.4952 175.412 94.5349 175.443 94.5795 175.465C94.624 175.488 94.6725 175.501 94.7222 175.505C94.7719 175.508 94.8219 175.502 94.8692 175.487C95.0797 175.432 95.3017 175.442 95.5065 175.515C95.7114 175.588 95.8896 175.72 96.0182 175.896C96.2654 176.244 96.2219 176.669 95.8963 177.102C95.8453 177.171 95.8188 177.254 95.821 177.339C95.8232 177.424 95.8541 177.506 95.9086 177.572C95.963 177.638 96.038 177.683 96.1214 177.701C96.2047 177.718 96.2916 177.707 96.3681 177.67V177.679Z" fill="#DE623C"/>
<path d="M105.336 178.913C105.299 178.866 105.278 178.809 105.274 178.75C105.27 178.691 105.284 178.631 105.313 178.58C105.343 178.528 105.387 178.487 105.44 178.46C105.493 178.434 105.553 178.423 105.612 178.431C107.504 178.684 109.422 178.684 111.314 178.431C111.373 178.424 111.432 178.434 111.485 178.461C111.538 178.487 111.582 178.529 111.612 178.58C111.642 178.632 111.656 178.69 111.652 178.75C111.649 178.809 111.628 178.866 111.592 178.913C111.103 179.573 110.093 180.572 108.459 180.572C106.824 180.572 105.823 179.573 105.336 178.913Z" fill="white"/>
<path d="M94.2948 173.361C101.029 172.459 110.45 165.599 111.223 162.077C109.921 157.849 102.982 155.723 99.0631 157.683C95.1444 159.643 91.4432 168.038 94.2948 173.361Z" fill="#191919"/>
<path d="M157.285 224.288C157.072 224.218 156.875 224.107 156.705 223.962C156.535 223.816 156.395 223.638 156.294 223.438C156.193 223.238 156.132 223.02 156.114 222.797C156.097 222.574 156.124 222.349 156.194 222.136L166.587 190.295C166.656 190.082 166.767 189.885 166.913 189.714C167.059 189.544 167.236 189.404 167.436 189.303C167.636 189.201 167.854 189.14 168.077 189.123C168.301 189.105 168.526 189.132 168.739 189.202C169.169 189.343 169.526 189.648 169.731 190.052C169.936 190.456 169.973 190.925 169.832 191.355L159.439 223.196C159.298 223.626 158.992 223.983 158.588 224.188C158.184 224.393 157.716 224.428 157.285 224.288Z" fill="white"/>
<path d="M162.808 212.87L164.921 206.383C164.921 206.383 166.756 210.114 164.921 213.657C163.086 217.2 161.338 217.358 161.338 217.358L162.808 212.87Z" fill="#F37A50"/>
<path d="M159.782 211.135C159.246 209.874 157.985 206.725 159.246 206.739C160.506 206.753 160.713 208.283 160.713 208.283L159.782 211.135Z" fill="#F37A50"/>
<path d="M55.6643 192.174C58.5229 189.291 56.6479 186.333 56.6479 186.333C58.2147 185.997 66.4909 198.532 70.0528 206.499C76.2765 200.231 87.2423 191.754 90.2071 191.26C90.2071 191.26 94.2111 190.184 95.6456 195.022C96.9287 199.338 91.9253 202.399 91.9253 202.399C91.9253 202.399 70.5124 217.51 67.3544 216.168C62.4346 214.077 57.9762 196.084 55.6643 192.174Z" fill="#F37A50"/>
<path d="M51.1955 191.816C52.9364 191.924 55.1021 191.059 55.7758 192.626L59.2228 190.946L59.4317 188.857C56.4722 184.111 49.2475 182.763 48.5337 182.701C46.6762 182.539 45.8127 182.353 45.6682 182.595C45.5237 182.837 45.0676 184.497 47.7573 184.821C51.1381 185.227 48.8941 187.931 42.0315 185.357C40.3132 184.712 37.0804 185.549 38.2503 186.804C39.5455 188.197 43.2484 191.332 51.1955 191.816Z" fill="#F37A50"/>
<path d="M214.997 98.6361H196.092C193.838 98.6361 192.011 100.468 192.011 102.727V102.899C192.011 105.158 193.838 106.99 196.092 106.99H214.997C217.251 106.99 219.078 105.158 219.078 102.899V102.727C219.078 100.468 217.251 98.6361 214.997 98.6361Z" fill="#939393"/>
<path d="M216.064 106.53C216.064 107.272 215.939 108.009 215.693 108.709C214.479 112.192 210.429 114.751 205.618 114.751C200.806 114.751 196.757 112.192 195.545 108.709C195.298 108.009 195.172 107.272 195.172 106.53H216.064Z" fill="#939393"/>
<path d="M216.064 106.53C216.064 107.272 215.939 108.009 215.693 108.709H195.545C195.298 108.009 195.172 107.272 195.172 106.53H216.064Z" fill="#0E6A41"/>
<path d="M227.493 71.2899C227.493 59.2181 217.717 49.4307 205.65 49.414C193.749 49.3973 183.96 58.9886 183.746 70.8884C183.648 75.8787 185.265 80.7517 188.329 84.6919C192.061 89.5001 194.133 95.3899 194.133 101.477V101.582H217.106V101.475C217.106 95.3824 219.192 89.4893 222.926 84.6694C225.894 80.8418 227.501 76.1336 227.493 71.2899Z" fill="#FFE91D"/>
<path d="M208.927 99.1083C208.864 99.1083 208.802 99.0976 208.743 99.0765C208.603 99.0277 208.488 98.9253 208.424 98.7918C208.359 98.6584 208.35 98.5048 208.399 98.3646C208.425 98.2904 211.004 90.8582 212.879 83.29C216.202 69.8746 214.492 67.6963 213.6 67.3791C210.986 66.4535 208.904 67.8231 207.617 69.1318C207.225 69.5355 206.864 69.9682 206.537 70.4262C207.117 71.4373 207.614 72.4944 208.021 73.5869C209.179 76.6816 209.487 79.5727 208.844 81.3195C208.349 82.6674 207.295 83.3509 205.877 83.2441C204.541 83.1431 203.56 82.3686 203.047 81.004C202.457 79.4391 202.533 77.1381 203.255 74.6902C203.703 73.1672 204.365 71.7151 205.219 70.377C204.448 69.1568 203.554 68.1069 202.585 67.4C201.145 66.3509 199.793 66.305 198.567 67.2639C196.034 69.2444 195.936 75.201 198.286 84.4885C200.098 91.6494 202.756 98.2703 202.783 98.3363C202.835 98.4732 202.832 98.6252 202.773 98.7596C202.714 98.8939 202.605 98.9999 202.469 99.0546C202.333 99.1093 202.181 99.1084 202.046 99.0521C201.91 98.9958 201.803 98.8886 201.746 98.7536C201.719 98.6868 199.036 92.0058 197.205 84.7723C194.701 74.8772 194.926 68.6894 197.878 66.3817C199.499 65.1148 201.405 65.1549 203.244 66.4953C204.162 67.1629 205.08 68.1745 205.902 69.4064C206.187 69.0357 206.494 68.6824 206.82 68.3481C208.961 66.1648 211.502 65.4453 213.975 66.3208C215.515 66.8658 216.145 68.939 215.906 72.658C215.729 75.4005 215.072 79.0694 213.963 83.5604C212.076 91.1787 209.481 98.6534 209.456 98.7285C209.418 98.8391 209.347 98.9351 209.252 99.0032C209.157 99.0713 209.044 99.108 208.927 99.1083ZM205.857 71.4762C205.207 72.588 204.694 73.7749 204.329 75.0107C203.684 77.1966 203.597 79.2914 204.095 80.6134C204.454 81.5682 205.065 82.0648 205.962 82.1324C206.888 82.2017 207.471 81.8219 207.798 80.9373C208.538 78.9225 207.638 74.8071 205.858 71.4762H205.857Z" fill="white"/>
<path d="M242.781 72.1884H235.633C235.144 72.1884 234.675 71.9942 234.329 71.6485C233.984 71.3027 233.789 70.8338 233.789 70.3448C233.789 70.1027 233.837 69.863 233.93 69.6393C234.022 69.4156 234.158 69.2123 234.329 69.0412C234.5 68.87 234.704 68.7342 234.927 68.6415C235.151 68.5488 235.391 68.5012 235.633 68.5012H242.785C243.274 68.5012 243.743 68.6954 244.089 69.0412C244.434 69.3869 244.629 69.8558 244.629 70.3448C244.629 70.5873 244.581 70.8273 244.488 71.0513C244.395 71.2753 244.259 71.4787 244.087 71.6499C243.916 71.8212 243.712 71.9569 243.488 72.0493C243.264 72.1417 243.023 72.189 242.781 72.1884Z" fill="#FFE91D"/>
<path d="M175.608 72.1884H168.456C167.967 72.1878 167.499 71.9932 167.154 71.6476C166.808 71.3019 166.615 70.8333 166.615 70.3448C166.615 70.1027 166.662 69.863 166.755 69.6393C166.847 69.4156 166.983 69.2123 167.154 69.0412C167.326 68.87 167.529 68.7342 167.753 68.6415C167.976 68.5488 168.216 68.5012 168.458 68.5012H175.61C176.099 68.5012 176.568 68.6954 176.914 69.0412C177.26 69.3869 177.454 69.8558 177.454 70.3448C177.454 70.5871 177.406 70.8271 177.313 71.0509C177.22 71.2748 177.084 71.4781 176.913 71.6493C176.741 71.8206 176.538 71.9563 176.314 72.0488C176.09 72.1413 175.85 72.1888 175.608 72.1884Z" fill="#FFE91D"/>
<path d="M180.154 57.0552L174.459 52.7236C174.071 52.4273 173.815 51.9889 173.75 51.5046C173.684 51.0202 173.813 50.5296 174.109 50.1405C174.255 49.9478 174.438 49.7859 174.648 49.664C174.857 49.5421 175.088 49.4626 175.328 49.43C175.568 49.3975 175.812 49.4125 176.046 49.4743C176.28 49.536 176.499 49.6433 176.692 49.7899L182.388 54.1207C182.581 54.2674 182.743 54.4507 182.865 54.6602C182.988 54.8697 183.067 55.1013 183.1 55.3416C183.132 55.5819 183.117 55.8263 183.055 56.0608C182.993 56.2953 182.885 56.5152 182.738 56.708C182.591 56.9005 182.408 57.0623 182.199 57.184C181.989 57.3056 181.758 57.3849 181.518 57.4171C181.278 57.4493 181.034 57.434 180.8 57.3719C180.566 57.3098 180.346 57.2022 180.154 57.0552Z" fill="#FFE91D"/>
<path d="M230.719 57.0551L236.411 52.7235C236.603 52.5769 236.765 52.3938 236.887 52.1847C237.009 51.9756 237.088 51.7444 237.121 51.5046C237.153 51.2647 237.138 51.0207 237.077 50.7867C237.015 50.5526 236.908 50.333 236.761 50.1404C236.614 49.9471 236.431 49.7847 236.222 49.6624C236.012 49.5401 235.781 49.4604 235.54 49.4279C235.3 49.3953 235.055 49.4105 234.821 49.4726C234.587 49.5348 234.367 49.6425 234.174 49.7898L228.482 54.1206C228.289 54.2673 228.127 54.4506 228.005 54.6601C227.882 54.8695 227.803 55.1011 227.77 55.3414C227.737 55.5817 227.752 55.8261 227.814 56.0606C227.876 56.2951 227.984 56.515 228.131 56.7079C228.278 56.9008 228.461 57.0629 228.671 57.1848C228.881 57.3067 229.112 57.3861 229.353 57.4183C229.593 57.4506 229.838 57.4351 230.072 57.3728C230.306 57.3104 230.526 57.2025 230.719 57.0551Z" fill="#FFE91D"/>
<path d="M180.154 85.922L174.459 90.2536C174.266 90.4004 174.104 90.5837 173.982 90.7932C173.86 91.0027 173.78 91.2343 173.748 91.4746C173.715 91.7149 173.73 91.9593 173.792 92.1937C173.854 92.4282 173.962 92.6481 174.109 92.8409C174.255 93.0336 174.439 93.1955 174.648 93.3174C174.857 93.4393 175.088 93.5188 175.328 93.5513C175.568 93.5839 175.812 93.5689 176.046 93.5071C176.28 93.4454 176.499 93.3381 176.692 93.1914L182.388 88.8565C182.581 88.7099 182.743 88.5265 182.865 88.317C182.988 88.1075 183.067 87.876 183.1 87.6356C183.132 87.3953 183.117 87.1509 183.055 86.9164C182.993 86.6819 182.885 86.462 182.738 86.2692C182.591 86.0767 182.408 85.9149 182.199 85.7932C181.989 85.6716 181.758 85.5924 181.518 85.5601C181.278 85.5279 181.034 85.5432 180.8 85.6053C180.566 85.6674 180.346 85.7751 180.154 85.922Z" fill="#FFE91D"/>
<path d="M230.719 85.9218L236.411 90.2534C236.604 90.4 236.766 90.5833 236.888 90.7928C237.011 91.0023 237.09 91.2339 237.123 91.4742C237.156 91.7146 237.14 91.959 237.078 92.1935C237.016 92.428 236.908 92.6479 236.761 92.8407C236.614 93.0339 236.431 93.1963 236.222 93.3186C236.012 93.4409 235.781 93.5206 235.54 93.5532C235.3 93.5857 235.055 93.5705 234.821 93.5084C234.587 93.4463 234.367 93.3385 234.174 93.1912L228.482 88.8604C228.289 88.7138 228.127 88.5304 228.005 88.321C227.882 88.1115 227.803 87.88 227.77 87.6397C227.737 87.3993 227.752 87.1549 227.814 86.9205C227.876 86.686 227.984 86.466 228.131 86.2731C228.277 86.0799 228.461 85.9174 228.67 85.7952C228.88 85.6729 229.112 85.5931 229.352 85.5605C229.592 85.5278 229.837 85.5429 230.071 85.6049C230.306 85.6669 230.526 85.7746 230.719 85.9218Z" fill="#FFE91D"/>
<path d="M226.061 209.758C226.061 209.758 222.63 203.285 221.258 196.416C220.065 190.549 220.121 183.533 220.267 179.799C220.274 179.614 220.34 179.436 220.456 179.292C220.572 179.148 220.731 179.045 220.91 178.998C221.09 178.952 221.279 178.964 221.45 179.034C221.622 179.103 221.766 179.226 221.862 179.384C224.022 182.915 227.927 190.004 228.805 196.422C229.434 200.845 229.841 205.298 230.023 209.763L226.061 209.758Z" fill="#939393"/>
<path d="M229.651 209.758C229.651 209.758 231.938 201.843 234.454 196.565C236.284 192.734 240.446 188.13 242.584 185.906C242.672 185.813 242.787 185.752 242.913 185.73C243.039 185.709 243.169 185.73 243.282 185.789C243.395 185.848 243.486 185.942 243.541 186.058C243.596 186.173 243.611 186.304 243.585 186.429C243.037 189.355 241.767 195.134 239.694 199.065C236.813 204.54 232.012 209.765 232.012 209.765L229.651 209.758Z" fill="#939393"/>
<path d="M217.886 202.737C217.813 202.595 217.784 202.435 217.802 202.277C217.821 202.118 217.887 201.969 217.991 201.849C218.095 201.728 218.233 201.641 218.386 201.599C218.54 201.557 218.703 201.562 218.854 201.614C220.587 202.2 222.185 203.128 223.554 204.342C226.113 206.668 226.59 209.318 226.59 209.318L225.709 209.614C225.709 209.614 220.948 208.745 217.886 202.737Z" fill="#191919"/>
<path d="M235.793 184.23C235.784 184.048 235.719 183.872 235.605 183.729C235.491 183.586 235.336 183.482 235.16 183.433C234.984 183.383 234.797 183.39 234.625 183.452C234.454 183.515 234.306 183.63 234.203 183.781C232.417 186.267 229.419 191.166 228.437 197.171C227.219 204.657 228.639 209.763 228.639 209.763H229.651C229.651 209.763 233.375 202.705 234.826 197.925C236.197 193.414 236.021 187.421 235.793 184.23Z" fill="#191919"/>
<path d="M232.011 209.758C232.011 209.758 234.153 202.62 241.482 199.908C241.578 199.871 241.683 199.864 241.783 199.886C241.883 199.909 241.975 199.961 242.046 200.035C242.117 200.109 242.164 200.203 242.182 200.304C242.2 200.406 242.188 200.51 242.147 200.604C241.181 202.962 238.427 208.592 233.775 209.762L232.011 209.758Z" fill="#191919"/>
<path d="M238.498 208.551H221.535L223.713 225.931H236.32L238.498 208.551Z" fill="#00C44E"/>
<path d="M220.259 222.141V224.636H220.938C221.096 224.636 221.248 224.699 221.36 224.811C221.472 224.923 221.535 225.074 221.535 225.233V225.334C221.535 225.492 221.472 225.644 221.36 225.756C221.248 225.868 221.096 225.931 220.938 225.931H191.993C191.809 225.931 191.632 225.858 191.501 225.727C191.37 225.596 191.297 225.419 191.297 225.235V221.641C191.297 221.456 191.37 221.279 191.501 221.149C191.632 221.018 191.809 220.945 191.993 220.945H220.938C221.016 220.945 221.094 220.96 221.166 220.99C221.239 221.02 221.305 221.064 221.36 221.119C221.416 221.175 221.46 221.241 221.49 221.313C221.52 221.386 221.535 221.463 221.535 221.542C221.535 221.62 221.519 221.698 221.489 221.77C221.459 221.843 221.415 221.908 221.36 221.964C221.304 222.019 221.238 222.063 221.166 222.093C221.093 222.122 221.016 222.138 220.938 222.137L220.259 222.141Z" fill="#00C44E"/>
<path d="M195.03 222.143H220.346V224.636H195.03C194.963 224.636 194.897 224.623 194.836 224.598C194.774 224.572 194.719 224.535 194.672 224.488C194.625 224.441 194.587 224.385 194.562 224.324C194.536 224.262 194.523 224.196 194.523 224.13V222.65C194.523 222.516 194.577 222.387 194.672 222.292C194.767 222.197 194.895 222.143 195.03 222.143Z" fill="white"/>
<path d="M188.74 216.757V219.516H188.061C187.894 219.525 187.737 219.599 187.625 219.723C187.513 219.847 187.455 220.011 187.464 220.178V220.289C187.456 220.456 187.514 220.619 187.626 220.742C187.738 220.866 187.894 220.94 188.061 220.949H217.005C217.199 220.939 217.382 220.852 217.512 220.708C217.643 220.564 217.711 220.374 217.701 220.179V216.205C217.711 216.01 217.643 215.82 217.512 215.676C217.382 215.532 217.199 215.445 217.005 215.435H188.061C187.894 215.444 187.737 215.518 187.625 215.642C187.513 215.766 187.455 215.93 187.464 216.097C187.456 216.263 187.514 216.426 187.626 216.55C187.738 216.674 187.894 216.748 188.061 216.757H188.74Z" fill="#00902B"/>
<path d="M213.943 219.516H188.653V216.757H213.943C214.084 216.757 214.22 216.813 214.32 216.913C214.419 217.013 214.476 217.148 214.476 217.289V218.983C214.476 219.125 214.419 219.26 214.32 219.36C214.22 219.46 214.084 219.516 213.943 219.516Z" fill="white"/>
<path d="M217.273 208.402H190.878C190.295 208.402 189.823 208.874 189.823 209.457V211.823C189.823 212.406 190.295 212.878 190.878 212.878H217.273C217.856 212.878 218.328 212.406 218.328 211.823V209.457C218.328 208.874 217.856 208.402 217.273 208.402Z" fill="#00902B"/>
<path d="M219.394 212.878H192.483C192.043 212.878 191.686 213.235 191.686 213.675V214.638C191.686 215.078 192.043 215.435 192.483 215.435H219.394C219.834 215.435 220.191 215.078 220.191 214.638V213.675C220.191 213.235 219.834 212.878 219.394 212.878Z" fill="#00C44E"/>
</svg>
